<svg xmlns="http://www.w3.org/2000/svg" width="16.344" height="26"><defs><linearGradient id="a" x1=".698" y1=".06" x2=".357" y2=".674" gradientUnits="objectBoundingBox"><stop offset="0" stop-color="#60696c"/><stop offset="1" stop-color="#28373b"/></linearGradient></defs><g opacity=".65" style="isolation:isolate"><path d="M8.185 26A3.05 3.05 0 015.2 23.572h-.622a1.013 1.013 0 01-1.013-1.012v-2.64a1.013 1.013 0 011.012-1.011h.387a6.882 6.882 0 00-.551-2.079 6.948 6.948 0 00-1.684-2.33A8.359 8.359 0 010 8.31 8.2 8.2 0 017.978 0h.265a8.335 8.335 0 015.369 14.5 6.843 6.843 0 00-2.231 4.407h.241a1.013 1.013 0 011.012 1.011v2.64a1.013 1.013 0 01-1.012 1.011h-.455A3.049 3.049 0 018.185 26zm-2.37-2.428a2.45 2.45 0 004.741 0zM4.578 19.5a.416.416 0 00-.415.417v2.64a.416.416 0 00.415.417h7.045a.416.416 0 00.417-.417v-1.02H9.26v-.595h2.78V19.92a.417.417 0 00-.417-.417zM1.752 7.753v1a5.7 5.7 0 005.7 5.7h.427v4.452h.595v-4.537h.246a4.6 4.6 0 004.6-4.6V8.91h-.861a4.568 4.568 0 00-2.59.8A4.614 4.614 0 008.2 11.772 5.772 5.772 0 006.168 8.89a5.647 5.647 0 00-3.412-1.136h-1zm6.484-4.046l-.494.493a3.361 3.361 0 000 4.752l.494.494.494-.494a3.365 3.365 0 000-4.752zm.217 17.829H7.077v-.595h1.376v.594zm-.929-7.675h-.076a5.04 5.04 0 01-3.03-1.009H6.5l1.024 1.008zm1.348-.1l3.846-3.931a4 4 0 01-3.846 3.932zm-1.019-.41l-5.077-5a5.1 5.1 0 015.078 5zm.617-.031v-.12a4 4 0 013.72-3.681l-3.72 3.8zm-2.575-1.062H3.746a5.108 5.108 0 01-.786-1.075H4.8l1.091 1.074zM4.2 10.589H2.691a5.048 5.048 0 01-.344-1.826L4.2 10.588zm4.036-1.983l-.075-.073a2.768 2.768 0 010-3.909l.075-.073.072.073a2.765 2.765 0 010 3.909l-.072.073z" fill="#28373b"/><path d="M9.15 16.373h-2v-3.56h.25A4.6 4.6 0 0012 8.226v-.86h-.86a4.564 4.564 0 00-2.59.8 4.622 4.622 0 00-1.666 2.057 5.743 5.743 0 00-2.033-2.874 5.664 5.664 0 00-3.415-1.134H.431v1a5.7 5.7 0 005.7 5.686h.426v3.469H4.708c-.005-.011-.757-1.735-1.005-2.292a5.78 5.78 0 00-1.413-1.945A6.992 6.992 0 010 6.953 6.873 6.873 0 016.693 0h.222a6.97 6.97 0 014.5 12.133 11.1 11.1 0 00-1.372 1.756 7.856 7.856 0 00-.9 2.484zM6.918 2.176l-.494.494a3.35 3.35 0 000 4.742l.494.492.495-.492a3.35 3.35 0 000-4.742zm-.712 10.133h-.074A5.065 5.065 0 013.1 11.3h2.081l1.024 1.005zm1.349-.1L11.4 8.288a3.992 3.992 0 01-3.844 3.922zM6.536 11.8L1.457 6.809a5.077 5.077 0 013.559 1.468 5.046 5.046 0 011.52 3.523zm.617-.029v-.124a4 4 0 013.725-3.672l-3.724 3.8zm-2.576-1.062H2.426a5.134 5.134 0 01-.786-1.074h1.846l1.09 1.073zm-1.7-1.668H1.371a5.027 5.027 0 01-.343-1.819L2.88 9.04zm4.041-1.976l-.073-.073a2.76 2.76 0 010-3.9l.073-.073.073.073a2.758 2.758 0 010 3.9l-.073.073z" transform="translate(1.316 1.523)" fill="url(#a)"/></g></svg>