<svg xmlns="http://www.w3.org/2000/svg" width="24.414" height="25"><g id="noun_bag_95443" transform="translate(.501 .5)"><g id="Сгруппировать_2659" data-name="Сгруппировать 2659"><path id="Контур_24760" data-name="Контур 24760" d="M11.689.001a4.165 4.165 0 00-4.046 3.488v.035L7.5 4.814H2.759a.85.85 0 00-.174 0 .837.837 0 00-.663.733L0 23.093A.837.837 0 00.837 24h21.735a.837.837 0 00.837-.907L21.665 5.547a.837.837 0 00-.837-.732h-4.814l-.14-1.4a.834.834 0 00-.035-.1A4.234 4.234 0 0011.688.001zm.035 1.674a2.442 2.442 0 012.477 2.023l.1 1.116H9.177l.14-1.081a2.4 2.4 0 012.407-2.058zm-8.2 4.814h3.767l-.244 2.093a.842.842 0 101.674.174L9 6.489h5.477l.209 2.267a.84.84 0 001.674-.139l-.209-2.128h3.907l1.57 15.837H1.747z" fill="#fff" stroke="#fff" stroke-width="1"/></g></g></svg>