<svg xmlns="http://www.w3.org/2000/svg" width="43.036" height="60.1"><defs><style>.a{fill:#2ec9ad}</style></defs><path class="a" d="M37.943 33.773c1.5-2.485 3.006-4.964 4.491-7.457a3.894 3.894 0 00-6.537-4.232c-.95 1.457-1.781 2.991-2.72 4.455a8.87 8.87 0 01-1.43 1.718 3.26 3.26 0 01-3.706.6 8.661 8.661 0 01-2.642-1.76q-4.272-4.037-8.537-8.084c-1.95-1.846-3.883-3.711-5.859-5.529a3.22 3.22 0 00-4.447 4.658c.525.535 1.084 1.036 1.627 1.553l12.413 11.8c1.56 1.484 3.145 2.944 4.666 4.466a4.5 4.5 0 01-1.822 7.5 14.137 14.137 0 01-2.348.337 4.5 4.5 0 01-1.174 4.21 4.752 4.752 0 01-4.227 1.371c.374 2.81-.468 4.262-3.264 5.66.133.249.255.506.4.749a8.858 8.858 0 0011.332 3.485q4.766-2.212 9.48-4.541a8.851 8.851 0 004.093-12.125c-.686-1.413-1.344-2.839-2.042-4.245a.841.841 0 01.031-.931c.755-1.21 1.485-2.436 2.222-3.658z"/><path class="a" d="M6.138 39.403c2.762 2.605 5.514 5.223 8.29 7.812a3.228 3.228 0 004.449-4.679c-3.152-3-6.331-5.978-9.5-8.958a3 3 0 00-1.851-.841 3.352 3.352 0 00-3.3 1.963 3.274 3.274 0 00.748 3.611c.378.376.778.727 1.164 1.092zm13.846 2.228a3.239 3.239 0 005.262-2.055 3.856 3.856 0 00-1.423-3.188c-1.8-1.682-3.587-3.387-5.379-5.083-1.177-1.114-2.34-2.242-3.531-3.34a3.216 3.216 0 00-5.414 1.612 3.107 3.107 0 00.984 3.1q2.575 2.451 5.163 4.887c1.441 1.358 2.854 2.753 4.338 4.067zm-6.597 6.509c-.431-.424-.881-.827-1.319-1.243q-3.209-3.043-6.416-6.088a3.307 3.307 0 00-2.305-1.049 3.191 3.191 0 00-3.28 2.609 3.435 3.435 0 001.317 3.328c2.524 2.361 5.021 4.75 7.535 7.121a3.236 3.236 0 104.469-4.678zm22.039-30.167a.8.8 0 001.087-.306l4.872-8.71a.8.8 0 00-1.386-.771l-4.879 8.7a.8.8 0 00.306 1.087zm-15.22-.175a.8.8 0 101.537-.432L19.08 7.887a.8.8 0 00-1.537.432zm9.186-6.329a.8.8 0 00.782-.817l-.289-9.87a.8.8 0 10-1.6.035l.289 9.87a.8.8 0 00.818.782zm-1.551 9.152l1.293-1.225 1.742.373-.767-1.608.892-1.545-1.768.232-1.189-1.324-.325 1.75-1.629.724 1.567.853zm-5.509-13.17l1.308-.227.932.953.19-1.314 1.195-.589-1.194-.589-.192-1.318-.93.954-1.312-.22.621 1.177zm10.901 4.189l1.224-.526 1.124.712-.12-1.326 1.021-.851-1.3-.294-.5-1.233-.679 1.141-1.326.091.878 1z"/></svg>