<svg xmlns="http://www.w3.org/2000/svg" width="60.04" height="54.679"><defs><style>.a{fill:#2ec9ad}</style></defs><path class="a" d="M60.027 32.404a.823.823 0 00-.1-.422l-9.865-17.395a.89.89 0 00-1.49 0l-9.866 17.395a.828.828 0 00-.1.422h-.009a11.062 11.062 0 0021.443 0zm-19.588 0l8.879-15.655 8.879 15.655zM0 32.404a11.062 11.062 0 0021.443 0h-.013a.823.823 0 00-.1-.422l-9.862-17.395a.89.89 0 00-1.49 0L.112 31.982a.828.828 0 00-.1.422H0zm1.842 0l8.879-15.655L19.6 32.404z"/><path class="a" d="M53.125 14.594a1.705 1.705 0 00-2.078-1.248c-2.993.742-4.561-.4-6.733-1.983-2.661-1.945-5.905-4.3-12.149-3v-.38a4.289 4.289 0 10-4.289 0v.38c-6.244-1.3-9.488 1.053-12.152 3-2.172 1.585-3.742 2.725-6.733 1.983a1.715 1.715 0 00-.828 3.328 10.632 10.632 0 002.6.339c3.045 0 5.114-1.512 6.986-2.878 2.506-1.829 4.914-3.535 10.129-2.23V45.03a4.29 4.29 0 00-4.289 4.289h-2.144a4.29 4.29 0 00-4.289 4.289 1.073 1.073 0 001.072 1.072h23.588a1.073 1.073 0 001.072-1.072 4.29 4.29 0 00-4.289-4.289h-2.144a4.29 4.29 0 00-4.292-4.289V11.905c5.211-1.3 7.623.4 10.132 2.23 1.872 1.366 3.941 2.878 6.986 2.878a10.645 10.645 0 002.6-.339 1.712 1.712 0 001.244-2.08z"/></svg>