<svg xmlns="http://www.w3.org/2000/svg" width="54.09" height="60.1"><defs><style>.a{fill:#2ec9ad}</style></defs><path class="a" d="M11.652 52.817a3.4 3.4 0 013.4-3.4h1.456v-3.4h-4.856a.485.485 0 01-.485-.485v-1.818a2.344 2.344 0 00-2.427-2.245 2.344 2.344 0 00-2.427 2.245v1.821a.485.485 0 01-.485.485H0v14.079h16.507v-3.884H15.05a3.4 3.4 0 01-3.4-3.4z"/><path class="a" d="M17.478 44.422v-4.369l1.942.3a2.737 2.737 0 100-5.462l-1.942.3v-4.848H0v14.079h5.34v-1.335a3.315 3.315 0 013.4-3.216 3.315 3.315 0 013.4 3.216v1.335zm19.134-9.224l-1.942-.3a2.737 2.737 0 100 5.462l1.942-.3v4.369h5.345v-1.342a3.4 3.4 0 016.8 0v1.335h5.34V30.343H36.612zM18.306 12.7l1.942-.308a2.778 2.778 0 110 5.549l-1.942-.309v4.7h5.826v2.081a2.916 2.916 0 005.826 0v-2.08h5.826v-4.7l-1.942.308a2.778 2.778 0 110-5.549l1.942.308V7.768H18.306zM26.56 0h.971v4.855h-.971zM11.893 2.8l.732-.638 2.914 3.344-.732.638zm26.345 2.66l3.345-2.914.638.732-3.345 2.914zm-28.19 10.074h4.855v.971h-4.855zm29.139 0h4.855v.971h-4.855zm2.28 37.283a2.5 2.5 0 00-2.575-2.427h-2.576v-4.855h-6.181v1.821a3.114 3.114 0 01-6.181 0v-1.821h-6.18v4.855h-2.576a2.432 2.432 0 100 4.855h2.575V60.1h18.543v-4.855h2.575a2.5 2.5 0 002.575-2.427z"/><path class="a" d="M47.783 45.535v-1.821a2.435 2.435 0 00-4.855 0v1.821a.485.485 0 01-.485.485h-4.86v3.4h1.456a3.4 3.4 0 010 6.8h-1.456v3.884H54.09V46.02h-5.826a.485.485 0 01-.485-.485z"/></svg>