<svg xmlns="http://www.w3.org/2000/svg" width="41.431" height="24"><defs><clipPath id="a"><path d="M0-4.637h41.431v-24H0z" transform="translate(0 28.637)" fill="#6d7476"/></clipPath></defs><g clip-path="url(#a)" fill="#6d7476"><path d="M6.14 7.07a.588.588 0 01-.587-.589V4.527a2.337 2.337 0 001.6-2.2A2.337 2.337 0 004.846 0a2.337 2.337 0 00-2.315 2.326 2.337 2.337 0 001.6 2.2V6.48a1.974 1.974 0 001.98 1.985h2.778v-1.4zm-1.664 5.674h4.445v-1.427H4.476a2.29 2.29 0 00-2.16-1.612A2.338 2.338 0 000 12.031a2.338 2.338 0 002.316 2.325 2.3 2.3 0 002.16-1.612m2.685 8.962a2.337 2.337 0 00-1.6-2.2v-1.955a.587.587 0 01.583-.59h2.807v-1.426H6.173a1.974 1.974 0 00-1.975 1.985v1.954a2.337 2.337 0 00-1.6 2.2 2.337 2.337 0 002.31 2.324 2.259 2.259 0 002.253-2.292m16.459-1.155c.124-.01.249-.018.373-.025l.331-.019.315-.023.215-.014.265-.018.266-.023.193-.018c.129-.012.258-.02.387-.034.169-.017.339-.033.507-.058a2.753 2.753 0 00.582-.158 3.085 3.085 0 001.976-2.622l.066-.691c.013-.142.023-.283.034-.426l.037-.468c.008-.1.013-.193.019-.288l.024-.4c.005-.086.011-.173.015-.26l.018-.39c.008-.181.018-.361.024-.541.008-.222.013-.443.018-.665s.005-.438.008-.658c0-.028.005-.057.008-.085v-1.33a.739.739 0 01-.008-.136c0-.249 0-.5-.008-.745 0-.207-.014-.414-.023-.621-.005-.127-.013-.256-.016-.383-.008-.267-.027-.534-.043-.8l-.019-.354c-.011-.166-.024-.331-.037-.5l-.018-.224-.055-.64-.034-.389a3.354 3.354 0 00-.177-.86 3.142 3.142 0 00-.491-.886 3.073 3.073 0 00-1.788-1.1 3.273 3.273 0 00-.412-.057c-.074-.006-.148-.017-.221-.023l-.222-.019-.222-.021-.236-.021-.129-.01c-.089-.009-.177-.014-.266-.02l-.3-.023c-.076-.005-.153-.012-.23-.016l-.352-.018a44.917 44.917 0 01-.366-.023h-.043c-.108-.005-.215-.011-.323-.014s-.206-.006-.309-.013c-.127-.009-.254-.013-.38-.017-.336-.007-.672-.021-1.007-.02h-.288a.137.137 0 01-.064-.008h-.964a.147.147 0 01-.071.008c-.246 0-.494 0-.741.008l-.719.024-.482.018c-.161.007-.311.017-.467.025l-.338.018-.387.024-.287.019-.308.024c-.067.006-.134.007-.2.015s-.163.013-.244.019l-.229.022c-.065.007-.129.014-.194.019-.127.011-.253.019-.38.033a3.305 3.305 0 00-.5.089 3.088 3.088 0 00-2.211 2.244 3.562 3.562 0 00-.088.563c-.011.13-.024.259-.037.388-.006.063-.013.125-.018.188-.019.228-.039.456-.056.684-.013.173-.023.346-.034.519l-.037.592c-.008.13-.013.26-.019.39q-.013.26-.023.52c-.006.132-.012.265-.015.4-.01.39-.021.78-.023 1.171 0 .19-.008.38-.009.571 0 .085 0 .168.005.253 0 .282 0 .564.01.846s.015.573.024.86c.005.171.011.342.019.513.011.236.024.472.037.707l.016.267c.011.188.021.375.034.562.01.154.024.308.036.461l.017.21.042.46.034.389a3.116 3.116 0 00.533 1.528 3.066 3.066 0 001.043.946 3.112 3.112 0 00.816.312 2.88 2.88 0 00.3.051c.146.017.291.029.437.043.124.011.248.025.372.037.081.008.163.013.244.019l.272.023.23.018.3.019.2.013.352.023c.1.007.205.012.308.02l.344.018h.094c.179.008.36.017.539.023q.317.011.633.018.6.014 1.2.016c.509 0 1.017-.008 1.526-.018.2 0 .393-.015.589-.022l.525-.018z"/><path d="M21.225 13.502h.343l.069-.031.089-.01a.543.543 0 00.1-.028.544.544 0 00.349-.461c0-.04.008-.08.011-.121 0-.025 0-.05.006-.075s.005-.055.007-.083 0-.034 0-.05v-.758a.221.221 0 010-.023v-.308c0-.047-.005-.094-.008-.141v-.062c0-.02 0-.059-.007-.087v-.039c0-.038-.006-.075-.009-.113 0-.023 0-.045-.006-.068a.611.611 0 00-.031-.151.557.557 0 00-.079-.158.539.539 0 00-.313-.194.544.544 0 00-.073-.01h-.858a.024.024 0 01-.011 0h-.17a.022.022 0 01-.013 0h-.807l-.066.006a.6.6 0 00-.088.016.541.541 0 00-.388.394.579.579 0 00-.016.1c0 .023 0 .046-.006.069s0 .022 0 .033l-.01.121c0 .03 0 .06-.006.091s0 .07-.007.1 0 .046 0 .069v.901c0 .03 0 .083.006.124v.047c0 .034 0 .066.006.1s0 .054.006.081 0 .024 0 .037l.008.08c0 .023 0 .046.006.069a.537.537 0 00.095.269.528.528 0 00.183.167.581.581 0 00.143.054c.018 0 .035.007.054.009l.076.008.065.006h1.288z"/><path d="M21.225 13.502h.343l.069-.031.089-.01a.543.543 0 00.1-.028.544.544 0 00.349-.461c0-.04.008-.08.011-.121 0-.025 0-.05.006-.075s.005-.055.007-.083 0-.034 0-.05v-.758a.221.221 0 010-.023v-.308c0-.047-.005-.094-.008-.141v-.062c0-.02 0-.059-.007-.087v-.039c0-.038-.006-.075-.009-.113 0-.023 0-.045-.006-.068a.611.611 0 00-.031-.151.557.557 0 00-.079-.158.539.539 0 00-.313-.194.544.544 0 00-.073-.01h-.858a.024.024 0 01-.011 0h-.17a.022.022 0 01-.013 0h-.807l-.066.006a.6.6 0 00-.088.016.541.541 0 00-.388.394.579.579 0 00-.016.1c0 .023 0 .046-.006.069s0 .022 0 .033l-.01.121c0 .03 0 .06-.006.091s0 .07-.007.1 0 .046 0 .069v.901c0 .03 0 .083.006.124v.047c0 .034 0 .066.006.1s0 .054.006.081 0 .024 0 .037l.008.08c0 .023 0 .046.006.069a.537.537 0 00.095.269.528.528 0 00.183.167.581.581 0 00.143.054c.018 0 .035.007.054.009l.076.008.065.006h1.288z" stroke="#fff" stroke-miterlimit="3.864"/><path d="M35.288 16.93a.588.588 0 01.587.59v1.953a2.32 2.32 0 00.71 4.527 2.32 2.32 0 00.71-4.527V17.52a1.974 1.974 0 00-1.976-1.985h-2.778v1.4zm1.667-5.675h-4.441v1.427h4.441a2.29 2.29 0 002.159 1.612 2.338 2.338 0 002.317-2.327 2.338 2.338 0 00-2.317-2.324 2.3 2.3 0 00-2.159 1.612m-2.686-8.96a2.337 2.337 0 001.6 2.2V6.45a.587.587 0 01-.582.588h-2.808v1.427h2.778a1.974 1.974 0 001.976-1.984V4.527a2.337 2.337 0 001.6-2.2A2.337 2.337 0 0036.523 0a2.259 2.259 0 00-2.254 2.295"/></g></svg>