<svg xmlns="http://www.w3.org/2000/svg" width="25.404" height="25.404"><defs><linearGradient id="a" x1=".679" y1=".057" x2=".378" y2=".866" gradientUnits="objectBoundingBox"><stop offset="0" stop-color="#206fa8"/><stop offset="1" stop-color="#005b9d"/></linearGradient></defs><path d="M22.682 10.887a2.723 2.723 0 00-2.722 2.722v2.722a15.427 15.427 0 00-14.517 0v-2.722a2.722 2.722 0 10-5.443 0v5.444a2.723 2.723 0 002.722 2.722h.907v3.629h3.629v-3.629h10.888v3.629h3.629v-3.629h.907a2.723 2.723 0 002.718-2.722v-5.444a2.723 2.723 0 00-2.718-2.722z" fill="#005b9d"/><path d="M7.258 13.586a17.209 17.209 0 0110.888 0 4.546 4.546 0 013.629-4.422v-.091a9.073 9.073 0 10-18.146 0v.091a4.544 4.544 0 013.629 4.422z" fill="#005b9d"/><path d="M6.07 11.9a13.064 13.064 0 014.269-.605 13.511 13.511 0 014.343.605 3.52 3.52 0 012.8-3.544v-.068a6.775 6.775 0 00-7.143-6.858A7.176 7.176 0 003 8.574v.073A3.467 3.467 0 016.07 11.9z" transform="translate(2.363 .063)" fill="url(#a)"/></svg>