<svg xmlns="http://www.w3.org/2000/svg" width="16.344" height="26" viewBox="0 0 16.344 26"><g style="isolation:isolate"><path d="M8.185,26A3.05,3.05,0,0,1,5.2,23.572H4.578A1.013,1.013,0,0,1,3.565,22.56V19.92a1.013,1.013,0,0,1,1.012-1.011h.387a6.882,6.882,0,0,0-.551-2.079A6.948,6.948,0,0,0,2.729,14.5,8.359,8.359,0,0,1,0,8.31,8.2,8.2,0,0,1,7.978,0h.265a8.335,8.335,0,0,1,5.369,14.5,6.843,6.843,0,0,0-2.231,4.407h.241a1.013,1.013,0,0,1,1.012,1.011v2.64a1.013,1.013,0,0,1-1.012,1.011h-.455A3.049,3.049,0,0,1,8.185,26Zm-2.37-2.428h0a2.45,2.45,0,0,0,4.741,0ZM4.578,19.5a.416.416,0,0,0-.415.417v2.64a.416.416,0,0,0,.415.417h7.045a.416.416,0,0,0,.417-.417V21.537H9.26v-.595h2.78V19.92a.417.417,0,0,0-.417-.417ZM1.752,7.753h0v1a5.7,5.7,0,0,0,5.7,5.7h.427v4.452h.595V14.368H8.72a4.6,4.6,0,0,0,4.6-4.6V8.91h-.861a4.568,4.568,0,0,0-2.59.8A4.614,4.614,0,0,0,8.2,11.772,5.772,5.772,0,0,0,6.168,8.89,5.647,5.647,0,0,0,2.756,7.754h-1ZM8.236,3.707,7.742,4.2a3.361,3.361,0,0,0,0,4.752l.494.494.494-.494a3.365,3.365,0,0,0,0-4.752Zm.217,17.829H7.077v-.595H8.453v.594Zm-.929-7.675H7.448a5.04,5.04,0,0,1-3.03-1.009H6.5l1.024,1.008Zm1.348-.1h0l3.846-3.931a4,4,0,0,1-3.846,3.932Zm-1.019-.41h0l-5.077-5a5.1,5.1,0,0,1,5.078,5Zm.617-.031h0V13.2A4,4,0,0,1,12.19,9.519l-3.72,3.8ZM5.895,12.258H3.746a5.108,5.108,0,0,1-.786-1.075H4.8l1.091,1.074ZM4.2,10.589H2.691a5.048,5.048,0,0,1-.344-1.826L4.2,10.588ZM8.236,8.606h0l-.075-.073a2.768,2.768,0,0,1,0-3.909l.075-.073.072.073a2.765,2.765,0,0,1,0,3.909l-.072.073Z" fill="#005b9d"/><path d="M9.15,16.373h0c-.012,0-.175,0-2,0V12.813H7.4A4.6,4.6,0,0,0,12,8.226v-.86H11.14a4.564,4.564,0,0,0-2.59.8,4.622,4.622,0,0,0-1.666,2.057A5.743,5.743,0,0,0,4.851,7.349,5.664,5.664,0,0,0,1.436,6.215H.431v1a5.7,5.7,0,0,0,5.7,5.686h.426v3.469H4.708c-.005-.011-.757-1.735-1.005-2.292A5.78,5.78,0,0,0,2.29,12.133,6.992,6.992,0,0,1,0,6.953,6.873,6.873,0,0,1,6.693,0h.222a6.97,6.97,0,0,1,4.5,12.133,11.1,11.1,0,0,0-1.372,1.756,7.856,7.856,0,0,0-.9,2.484ZM6.918,2.176l-.494.494a3.35,3.35,0,0,0,0,4.742l.494.492.495-.492a3.35,3.35,0,0,0,0-4.742ZM6.206,12.309H6.132A5.065,5.065,0,0,1,3.1,11.3H5.181l1.024,1.005Zm1.349-.1h0L11.4,8.288A3.992,3.992,0,0,1,7.556,12.21ZM6.536,11.8h0L1.457,6.809A5.077,5.077,0,0,1,5.016,8.277,5.046,5.046,0,0,1,6.536,11.8Zm.617-.029h0v-.124a4,4,0,0,1,3.725-3.672l-3.724,3.8ZM4.577,10.709H2.426A5.134,5.134,0,0,1,1.64,9.635H3.486l1.09,1.073Zm-1.7-1.668H1.371a5.027,5.027,0,0,1-.343-1.819L2.88,9.04ZM6.918,7.065h0l-.073-.073a2.76,2.76,0,0,1,0-3.9l.073-.073.073.073a2.758,2.758,0,0,1,0,3.9l-.073.073Z" transform="translate(1.316 1.523)" fill="#005b9d"/></g></svg>