<svg xmlns="http://www.w3.org/2000/svg" width="60.04" height="54.679" viewBox="0 0 60.04 54.679"><defs><style>.a{fill:#2ec9ad;}</style></defs><g transform="translate(-2 -2)"><path class="a" d="M41.43,26.835a.823.823,0,0,0-.1-.422L31.465,9.018a.89.89,0,0,0-1.49,0L20.109,26.413a.828.828,0,0,0-.1.422H20a11.062,11.062,0,0,0,21.443,0Zm-19.588,0L30.721,11.18,39.6,26.835Z" transform="translate(20.597 7.569)"/><path class="a" d="M2,26.835a11.062,11.062,0,0,0,21.443,0H23.43a.823.823,0,0,0-.1-.422L13.468,9.018a.89.89,0,0,0-1.49,0L2.112,26.413a.828.828,0,0,0-.1.422H2Zm1.842,0L12.721,11.18,21.6,26.835Z" transform="translate(0 7.569)"/><path class="a" d="M51.462,16.594a1.705,1.705,0,0,0-2.078-1.248c-2.993.742-4.561-.4-6.733-1.983-2.661-1.945-5.905-4.3-12.149-3v-.38a4.289,4.289,0,1,0-4.289,0v.38c-6.244-1.3-9.488,1.053-12.152,3-2.172,1.585-3.742,2.725-6.733,1.983A1.715,1.715,0,0,0,6.5,18.674a10.632,10.632,0,0,0,2.6.339c3.045,0,5.114-1.512,6.986-2.878C18.592,14.306,21,12.6,26.215,13.905V47.03a4.29,4.29,0,0,0-4.289,4.289H19.782a4.29,4.29,0,0,0-4.289,4.289,1.073,1.073,0,0,0,1.072,1.072H40.153a1.073,1.073,0,0,0,1.072-1.072,4.29,4.29,0,0,0-4.289-4.289H34.792A4.29,4.29,0,0,0,30.5,47.03V13.905c5.211-1.3,7.623.4,10.132,2.23,1.872,1.366,3.941,2.878,6.986,2.878a10.645,10.645,0,0,0,2.6-.339A1.712,1.712,0,0,0,51.462,16.594Z" transform="translate(3.663)"/></g></svg>