<svg xmlns="http://www.w3.org/2000/svg" width="24.414" height="25" viewBox="0 0 24.414 25">
  <g id="noun_bag_95443" transform="translate(0.501 0.5)">
    <g id="Сгруппировать_2659" data-name="Сгруппировать 2659">
      <path id="Контур_24760" data-name="Контур 24760" d="M24.189,963.922a4.165,4.165,0,0,0-4.046,3.488c0,.012,0,.023,0,.035L20,968.735H15.259a.85.85,0,0,0-.174,0,.837.837,0,0,0-.663.733L12.5,987.014a.837.837,0,0,0,.837.907H35.072a.837.837,0,0,0,.837-.907l-1.744-17.546a.837.837,0,0,0-.837-.732H28.514l-.14-1.4a.834.834,0,0,0-.035-.1,4.234,4.234,0,0,0-4.151-3.314Zm.035,1.674a2.442,2.442,0,0,1,2.477,2.023l.1,1.116H21.677l.14-1.081a2.4,2.4,0,0,1,2.407-2.058Zm-8.2,4.814h3.767l-.244,2.093a.842.842,0,1,0,1.674.174l.279-2.267h5.477l.209,2.267a.84.84,0,0,0,1.674-.139l-.209-2.128h3.907l1.57,15.837H14.247Z" transform="translate(-12.5 -963.921)" fill="#fff" stroke="#fff" stroke-width="1"/>
    </g>
  </g>
</svg>
