<svg xmlns="http://www.w3.org/2000/svg" width="43.036" height="60.1" viewBox="0 0 43.036 60.1"><defs><style>.a{fill:#2ec9ad;}</style></defs><g transform="translate(-14.196 0)"><g transform="translate(14.196 0)"><path class="a" d="M55.858,42.152c1.5-2.485,3.006-4.964,4.491-7.457a3.894,3.894,0,0,0-6.537-4.232c-.95,1.457-1.781,2.991-2.72,4.455a8.87,8.87,0,0,1-1.43,1.718,3.26,3.26,0,0,1-3.706.6,8.661,8.661,0,0,1-2.642-1.76q-4.272-4.037-8.537-8.084c-1.95-1.846-3.883-3.711-5.859-5.529a3.22,3.22,0,0,0-4.447,4.658c.525.535,1.084,1.036,1.627,1.553q6.207,5.9,12.413,11.8c1.56,1.484,3.145,2.944,4.666,4.466a4.5,4.5,0,0,1-1.822,7.5,14.137,14.137,0,0,1-2.348.337,4.5,4.5,0,0,1-1.174,4.21,4.752,4.752,0,0,1-4.227,1.371c.374,2.81-.468,4.262-3.264,5.66.133.249.255.506.4.749a8.858,8.858,0,0,0,11.332,3.485q4.766-2.212,9.48-4.541a8.851,8.851,0,0,0,4.093-12.125c-.686-1.413-1.344-2.839-2.042-4.245a.841.841,0,0,1,.031-.931C54.391,44.6,55.121,43.374,55.858,42.152Z" transform="translate(-17.915 -8.379)"/><path class="a" d="M22.972,61.138c2.762,2.605,5.514,5.223,8.29,7.812a3.228,3.228,0,0,0,4.449-4.679c-3.152-3-6.331-5.978-9.5-8.958a3,3,0,0,0-1.851-.841,3.352,3.352,0,0,0-3.3,1.963,3.274,3.274,0,0,0,.748,3.611C22.186,60.422,22.586,60.773,22.972,61.138Z" transform="translate(-16.834 -21.735)"/><path class="a" d="M40.427,59.581a3.239,3.239,0,0,0,5.262-2.055,3.856,3.856,0,0,0-1.423-3.188c-1.8-1.682-3.587-3.387-5.379-5.083-1.177-1.114-2.34-2.242-3.531-3.34a3.216,3.216,0,0,0-5.414,1.612,3.107,3.107,0,0,0,.984,3.1q2.575,2.451,5.163,4.887C37.53,56.872,38.943,58.267,40.427,59.581Z" transform="translate(-20.443 -17.95)"/><path class="a" d="M27.583,74.536c-.431-.424-.881-.827-1.319-1.243q-3.209-3.043-6.416-6.088a3.307,3.307,0,0,0-2.305-1.049,3.191,3.191,0,0,0-3.28,2.609,3.435,3.435,0,0,0,1.317,3.328c2.524,2.361,5.021,4.75,7.535,7.121a3.236,3.236,0,1,0,4.469-4.678Z" transform="translate(-14.196 -26.396)"/><path class="a" d="M72.87,23.186a.8.8,0,0,0,1.087-.306l4.872-8.71a.8.8,0,0,0-1.386-.771l-4.879,8.7A.8.8,0,0,0,72.87,23.186Z" transform="translate(-37.444 -5.213)"/><path class="a" d="M46.026,22.647a.8.8,0,1,0,1.537-.432L44.9,12.736a.8.8,0,0,0-1.537.432Z" transform="translate(-25.82 -4.849)"/><path class="a" d="M62.367,11.469a.8.8,0,0,0,.782-.817L62.86.782a.8.8,0,1,0-1.6.035l.289,9.87A.8.8,0,0,0,62.367,11.469Z" transform="translate(-32.975 0)"/><path class="a" d="M59.359,30.925,60.652,29.7l1.742.373-.767-1.608.892-1.545-1.768.232-1.189-1.324-.325,1.75-1.629.724,1.567.853Z" transform="translate(-31.518 -10.304)"/><path class="a" d="M51.353,10.35l1.308-.227.932.953.19-1.314,1.195-.589-1.194-.589-.192-1.318-.93.954L51.35,8l.621,1.177Z" transform="translate(-29.021 -2.899)"/><path class="a" d="M69.128,17.032l1.224-.526,1.124.712-.12-1.326,1.021-.851-1.3-.294-.5-1.233-.679,1.141-1.326.091.878,1Z" transform="translate(-35.895 -5.392)"/></g></g></svg>