<svg xmlns="http://www.w3.org/2000/svg" xmlns:xlink="http://www.w3.org/1999/xlink" width="41.431" height="24" viewBox="0 0 41.431 24"><defs><clipPath id="a"><path d="M0-4.637H41.431v-24H0Z" transform="translate(0 28.637)" fill="#6d7476"/></clipPath></defs><g transform="translate(0 28.637)"><g transform="translate(0 -28.637)" clip-path="url(#a)"><g transform="translate(2.531 0)"><path d="M-.7-1.366a.588.588,0,0,1-.587-.589V-3.909a2.337,2.337,0,0,0,1.6-2.2A2.337,2.337,0,0,0-1.994-8.436,2.337,2.337,0,0,0-4.309-6.11a2.337,2.337,0,0,0,1.6,2.2v1.954A1.974,1.974,0,0,0-.729.029H2.049v-1.4Z" transform="translate(4.309 8.436)" fill="#6d7476"/></g><g transform="translate(0 9.705)"><path d="M-.865-.587H3.58V-2.014H-.865A2.29,2.29,0,0,0-3.025-3.626,2.338,2.338,0,0,0-5.341-1.3,2.338,2.338,0,0,0-3.025,1.025,2.3,2.3,0,0,0-.865-.587" transform="translate(5.341 3.626)" fill="#6d7476"/></g><g transform="translate(2.593 15.535)"><path d="M-.883-1.192a2.337,2.337,0,0,0-1.6-2.2V-5.347A.587.587,0,0,1-1.9-5.937H.907V-7.363H-1.871A1.974,1.974,0,0,0-3.846-5.378v1.954a2.337,2.337,0,0,0-1.6,2.2A2.337,2.337,0,0,0-3.136,1.1,2.259,2.259,0,0,0-.883-1.192" transform="translate(5.451 7.363)" fill="#6d7476"/></g><g transform="translate(12.129 3.372)"><path d="M-2.22-3.319c.124-.01.249-.018.373-.025s.22-.012.331-.019l.315-.023L-.986-3.4l.265-.018.266-.023.193-.018c.129-.012.258-.02.387-.034.169-.017.339-.033.507-.058a2.753,2.753,0,0,0,.582-.158A3.085,3.085,0,0,0,3.19-6.331c.021-.23.045-.461.066-.691.013-.142.023-.283.034-.426s.025-.312.037-.468c.008-.1.013-.193.019-.288.008-.132.016-.265.024-.4.005-.086.011-.173.015-.26.007-.13.013-.26.018-.39.008-.181.018-.361.024-.541.008-.222.013-.443.018-.665s.005-.438.008-.658c0-.028.005-.057.008-.085v-1.33a.739.739,0,0,1-.008-.136c0-.249,0-.5-.008-.745,0-.207-.014-.414-.023-.621-.005-.127-.013-.256-.016-.383-.008-.267-.027-.534-.043-.8-.007-.117-.012-.236-.019-.354-.011-.166-.024-.331-.037-.5q-.008-.112-.018-.224l-.055-.64c-.012-.129-.023-.259-.034-.389a3.354,3.354,0,0,0-.177-.86,3.142,3.142,0,0,0-.491-.886,3.073,3.073,0,0,0-1.788-1.1,3.273,3.273,0,0,0-.412-.057c-.074-.006-.148-.017-.221-.023s-.148-.013-.222-.019l-.222-.021c-.079-.007-.158-.015-.236-.021l-.129-.01c-.089-.009-.177-.014-.266-.02l-.3-.023c-.076-.005-.153-.012-.23-.016l-.352-.018c-.122-.007-.244-.015-.366-.023l-.043,0c-.108-.005-.215-.011-.323-.014s-.206-.006-.309-.013c-.127-.009-.254-.013-.38-.017-.336-.007-.672-.021-1.007-.02-.1,0-.192,0-.288,0a.137.137,0,0,1-.064-.008h-.964a.147.147,0,0,1-.071.008c-.246,0-.494,0-.741.008s-.479.016-.719.024c-.161.006-.321.011-.482.018s-.311.017-.467.025l-.338.018-.387.024c-.1.006-.192.012-.287.019s-.205.015-.308.024c-.067.006-.134.007-.2.015s-.163.013-.244.019l-.229.022c-.065.007-.129.014-.194.019-.127.011-.253.019-.38.033a3.305,3.305,0,0,0-.5.089,3.088,3.088,0,0,0-2.211,2.244,3.562,3.562,0,0,0-.088.563c-.011.13-.024.259-.037.388-.006.063-.013.125-.018.188-.019.228-.039.456-.056.684-.013.173-.023.346-.034.519-.013.2-.025.395-.037.592-.008.13-.013.26-.019.39q-.013.26-.023.52c-.006.132-.012.265-.015.4-.01.39-.021.78-.023,1.171,0,.19-.008.38-.009.571,0,.085,0,.168.005.253,0,.282,0,.564.01.846s.015.573.024.86c.005.171.011.342.019.513.011.236.024.472.037.707.005.089.01.179.016.267.011.188.021.375.034.562.01.154.024.308.036.461.006.07.011.14.017.21.013.153.028.307.042.46.012.13.023.26.034.389A3.116,3.116,0,0,0-12.9-4.843a3.066,3.066,0,0,0,1.043.946,3.112,3.112,0,0,0,.816.312,2.88,2.88,0,0,0,.3.051c.146.017.291.029.437.043.124.011.248.025.372.037.081.008.163.013.244.019l.272.023.23.018.3.019.2.013.352.023c.1.007.205.012.308.02l.344.018c.031,0,.063,0,.094,0,.179.008.36.017.539.023q.317.011.633.018.6.014,1.2.016c.509,0,1.017-.008,1.526-.018.2,0,.393-.015.589-.022l.525-.018Z" transform="translate(13.711 20.498)" fill="#6d7476"/></g><g transform="translate(19.209 10.484)"><path d="M-.39-.583l.065,0,.058,0,.055,0,.038,0,.047,0,.046,0,.034,0L.022-.614l.089-.01a.543.543,0,0,0,.1-.028A.544.544,0,0,0,.56-1.113c0-.04.008-.08.011-.121,0-.025,0-.05.006-.075s.005-.055.007-.083,0-.034,0-.05,0-.046,0-.07,0-.031,0-.046,0-.045,0-.068,0-.064,0-.1,0-.078,0-.116,0-.077,0-.116c0-.005,0-.01,0-.015V-2.2a.221.221,0,0,1,0-.023c0-.044,0-.087,0-.132s0-.073,0-.109,0-.044,0-.067c0-.047-.005-.094-.008-.141,0-.021,0-.042,0-.062s0-.059-.007-.087c0-.013,0-.027,0-.039,0-.038-.006-.075-.009-.113,0-.023,0-.045-.006-.068a.611.611,0,0,0-.031-.151A.557.557,0,0,0,.444-3.35a.539.539,0,0,0-.313-.194.544.544,0,0,0-.073-.01l-.039,0-.039,0-.039,0-.041,0-.023,0-.047,0-.053,0-.04,0-.062,0-.064,0H-.4l-.057,0-.054,0-.066,0c-.06,0-.118,0-.177,0H-.8a.024.024,0,0,1-.011,0H-.981a.022.022,0,0,1-.013,0l-.13,0-.127,0-.084,0-.082,0-.06,0-.068,0-.05,0-.054,0-.035,0-.043,0-.04,0-.034,0-.066.006a.6.6,0,0,0-.088.016.541.541,0,0,0-.388.394.579.579,0,0,0-.016.1c0,.023,0,.046-.006.069s0,.022,0,.033l-.01.121c0,.03,0,.06-.006.091s0,.07-.007.1,0,.046,0,.069,0,.061,0,.091l0,.07c0,.069,0,.137,0,.206,0,.034,0,.067,0,.1,0,.014,0,.029,0,.044,0,.049,0,.1,0,.148s0,.1,0,.152c0,.029,0,.06,0,.09s0,.083.006.124c0,.016,0,.032,0,.047,0,.034,0,.066.006.1s0,.054.006.081,0,.024,0,.037l.008.08c0,.023,0,.046.006.069a.537.537,0,0,0,.095.269.528.528,0,0,0,.183.167.581.581,0,0,0,.143.054c.018,0,.035.007.054.009l.076.008.065.006.043,0,.048,0,.04,0,.053,0,.035,0,.062,0,.054,0,.06,0h.017l.095,0,.111,0,.21,0c.09,0,.179,0,.268,0l.1,0,.092,0Z" transform="translate(2.406 3.601)" fill="#6d7476"/></g><g transform="translate(19.209 10.484)"><path d="M-.39-.583l.065,0,.058,0,.055,0,.038,0,.047,0,.046,0,.034,0L.022-.614l.089-.01a.543.543,0,0,0,.1-.028A.544.544,0,0,0,.56-1.113c0-.04.008-.08.011-.121,0-.025,0-.05.006-.075s.005-.055.007-.083,0-.034,0-.05,0-.046,0-.07,0-.031,0-.046,0-.045,0-.068,0-.064,0-.1,0-.078,0-.116,0-.077,0-.116c0-.005,0-.01,0-.015V-2.2a.221.221,0,0,1,0-.023c0-.044,0-.087,0-.132s0-.073,0-.109,0-.044,0-.067c0-.047-.005-.094-.008-.141,0-.021,0-.042,0-.062s0-.059-.007-.087c0-.013,0-.027,0-.039,0-.038-.006-.075-.009-.113,0-.023,0-.045-.006-.068a.611.611,0,0,0-.031-.151A.557.557,0,0,0,.444-3.35a.539.539,0,0,0-.313-.194.544.544,0,0,0-.073-.01l-.039,0-.039,0-.039,0-.041,0-.023,0-.047,0-.053,0-.04,0-.062,0-.064,0H-.4l-.057,0-.054,0-.066,0c-.06,0-.118,0-.177,0H-.8a.024.024,0,0,1-.011,0H-.981a.022.022,0,0,1-.013,0l-.13,0-.127,0-.084,0-.082,0-.06,0-.068,0-.05,0-.054,0-.035,0-.043,0-.04,0-.034,0-.066.006a.6.6,0,0,0-.088.016.541.541,0,0,0-.388.394.579.579,0,0,0-.016.1c0,.023,0,.046-.006.069s0,.022,0,.033l-.01.121c0,.03,0,.06-.006.091s0,.07-.007.1,0,.046,0,.069,0,.061,0,.091l0,.07c0,.069,0,.137,0,.206,0,.034,0,.067,0,.1,0,.014,0,.029,0,.044,0,.049,0,.1,0,.148s0,.1,0,.152c0,.029,0,.06,0,.09s0,.083.006.124c0,.016,0,.032,0,.047,0,.034,0,.066.006.1s0,.054.006.081,0,.024,0,.037l.008.08c0,.023,0,.046.006.069a.537.537,0,0,0,.095.269.528.528,0,0,0,.183.167.581.581,0,0,0,.143.054c.018,0,.035.007.054.009l.076.008.065.006.043,0,.048,0,.04,0,.053,0,.035,0,.062,0,.054,0,.06,0h.017l.095,0,.111,0,.21,0c.09,0,.179,0,.268,0l.1,0,.092,0Z" transform="translate(2.406 3.601)" fill="#6d7476" stroke="#fff" stroke-miterlimit="3.864" stroke-width="1"/></g><g transform="translate(32.541 15.535)"><path d="M-.531-.27A.588.588,0,0,1,.056.32V2.273A2.32,2.32,0,0,0,.766,6.8a2.32,2.32,0,0,0,.71-4.527V.32A1.974,1.974,0,0,0-.5-1.665H-3.278v1.4Z" transform="translate(3.278 1.665)" fill="#6d7476"/></g><g transform="translate(32.51 9.643)"><path d="M-.859-.312H-5.3V1.115H-.859A2.29,2.29,0,0,0,1.3,2.727,2.338,2.338,0,0,0,3.617.4,2.338,2.338,0,0,0,1.3-1.924,2.3,2.3,0,0,0-.859-.312" transform="translate(5.304 1.924)" fill="#6d7476"/></g><g transform="translate(32.479 0)"><path d="M-.346-.443a2.337,2.337,0,0,0,1.6,2.2V3.712A.587.587,0,0,1,.672,4.3H-2.136V5.727H.642A1.974,1.974,0,0,0,2.618,3.743V1.789a2.337,2.337,0,0,0,1.6-2.2A2.337,2.337,0,0,0,1.908-2.738,2.259,2.259,0,0,0-.346-.443" transform="translate(2.136 2.738)" fill="#6d7476"/></g></g></g></svg>