<svg xmlns="http://www.w3.org/2000/svg" xmlns:xlink="http://www.w3.org/1999/xlink" width="25.404" height="25.404" viewBox="0 0 25.404 25.404"><defs><linearGradient id="a" x1="0.679" y1="0.057" x2="0.378" y2="0.866" gradientUnits="objectBoundingBox"><stop offset="0" stop-color="#206fa8"/><stop offset="1" stop-color="#005b9d"/></linearGradient></defs><g transform="translate(-648 -304.596)"><path d="M23.682,7A2.723,2.723,0,0,0,20.96,9.722v2.722a15.427,15.427,0,0,0-14.517,0V9.722A2.722,2.722,0,1,0,1,9.722v5.444a2.723,2.723,0,0,0,2.722,2.722h.907v3.629H8.258V17.888H19.146v3.629h3.629V17.888h.907A2.723,2.723,0,0,0,26.4,15.166V9.722A2.723,2.723,0,0,0,23.682,7Z" transform="translate(647 308.483)" fill="#005b9d"/><g transform="translate(651.629 304.596)"><path d="M6.629,14.586a17.209,17.209,0,0,1,10.888,0,4.546,4.546,0,0,1,3.629-4.422v-.091A9.073,9.073,0,1,0,3,10.073v.091A4.544,4.544,0,0,1,6.629,14.586Z" transform="translate(-3 -1)" fill="#005b9d"/><path d="M6.07,11.9a13.064,13.064,0,0,1,4.269-.605,13.511,13.511,0,0,1,4.343.605,3.52,3.52,0,0,1,2.8-3.544V8.288A6.775,6.775,0,0,0,10.339,1.43,7.176,7.176,0,0,0,3,8.574v.073A3.467,3.467,0,0,1,6.07,11.9Z" transform="translate(-1.266 0.063)" fill="url(#a)"/></g></g></svg>